<?xml version="1.0" standalone="no"?>
<!DOCTYPE svg PUBLIC "-//W3C//DTD SVG 20010904//EN"
 "http://www.w3.org/TR/2001/REC-SVG-20010904/DTD/svg10.dtd">
<svg version="1.0" xmlns="http://www.w3.org/2000/svg"
 width="270.000000pt" height="270.000000pt" viewBox="0 0 270.000000 270.000000"
 preserveAspectRatio="xMidYMid meet">
<metadata>
Created by potrace 1.14, written by Peter Selinger 2001-2017
</metadata>
<g transform="translate(0.000000,270.000000) scale(0.100000,-0.100000)"
fill="#000000" stroke="none">
<path d="M640 2106 l0 -105 713 -3 c791 -3 751 0 814 -71 85 -97 74 -311 -21
-381 -49 -37 -91 -46 -238 -53 l-138 -6 0 -104 0 -103 118 0 c201 0 292 -28
344 -108 34 -51 48 -103 48 -183 0 -128 -46 -216 -137 -261 -45 -22 -62 -23
-283 -28 l-235 -5 -3 -98 -3 -98 273 3 c259 3 276 4 330 26 126 51 218 177
252 344 20 97 20 130 0 225 -27 131 -90 227 -183 280 -25 15 -47 28 -49 29 -2
1 19 23 47 49 124 116 163 313 97 488 -46 124 -111 193 -224 242 -45 19 -72
20 -784 23 l-738 3 0 -105z"/>
<path d="M744 1851 c7 -54 6 -109 -7 -228 -18 -163 -22 -287 -11 -342 l7 -31
82 0 82 0 -5 92 c-3 58 2 158 13 264 14 128 16 188 9 240 l-9 69 -85 3 -86 3
10 -70z"/>
<path d="M219 1593 c-2 -13 -1 -20 56 -555 30 -284 55 -521 55 -527 0 -8 143
-10 513 -9 l512 3 61 543 c33 298 58 545 55 547 -2 3 -44 5 -93 5 -62 0 -90
-4 -93 -12 -2 -7 -14 -110 -26 -228 -12 -118 -23 -217 -25 -219 -2 -2 -48 -6
-101 -9 -73 -3 -146 3 -288 23 -142 20 -215 26 -287 23 l-98 -5 -5 31 c-4 28
-35 364 -35 386 0 12 -199 14 -201 3z"/>
</g>
</svg>
